<svg width="532" height="571" viewBox="0 0 532 571" fill="none" xmlns="http://www.w3.org/2000/svg">
<path d="M0.5 237L19 238L38 239L48 239.5L50.5 240V278.252L12 311L50 305.5H50.5V426.5L14 430.5L15.5 431L17.5 431.5L23.5 433.5L50 441.5L50.5 442V506.789H96.116L81.5 526.5L108 507H108.5H123L120 542L120.5 541L146.5 506.5H152.5L153 507.5L153.5 508.5L154.5 510L156 512L157.5 513.5L158.5 514.5L160 515.5L161 516L162.5 517L166 522.5L166.5 523.5L167 524.5L168.5 528L169 529L169.5 531V534L168 537L167 538.5L166.5 539L166 540V541V542L167.5 544L171 549L174 553.5L175 554L177 553.5L182.5 551L189 547.5L198 542L209 534.5L219.5 527L231 518L235 514.5L236 513.5L239 511L242.5 507H243H272.288L272 509.5L271.5 511L272.5 513L272 513.5L266 515L259 517L257 517.5L254 518L250 518.5L248.5 519.5L244 522L240 524.5L236 527L235 528L231.5 531L230 532V534V539.5L231 541L232.5 544L233.5 545.5L236.5 551L237 552L239.5 554.5L243.5 559L244.5 560L247 562L253 567L254 568L256 569.5H260L263 570L264 569L267 566.5L269.5 564.5L271.5 563L275 560.5L276.5 554.5L277 554L278.5 552.5L281.5 550L280.5 543L286 535.5L289 532.5L290.5 533L292 534L295 533L296.5 532.5L304 537L307 539H308L324 534L337 530L340 531L346 533L353.5 535.5L363 524L363.5 523.5V521L377 522L379 522.5L381 523L398.5 529L411.5 534L419 533.5H432L435 534L448.5 538L458 527L479 504L507 473L488 468.5L477 466L461.5 457L456.5 454L456 453V293.5H502V133.5L529.5 128L530 127.5L512 128H502V52.7005H380.262V77H334.838L340.5 60L344.5 48.5L326 59.5L291.5 79.5L282.5 78L281.5 75L278 59L274.5 43.5L272 48L264 64L257 77H255L248 64L244.5 58L240.5 51L230.5 33L228.5 29.5L221 41L210.5 57L208 61H207.5L194.5 46L176 25L163 10L157 3L156 2L156.5 4L163.5 24.5L169.5 42.5L176 62L181.5 78L162.5 79L144.5 71L123 61.5L103 52.5L82 43L56 31.5L35 22L17 14L2.5 7.5L9.5 13L25 25L44.5 40L66.5 57L90 75L93 77.5L74.5 77L66 78.5L63 78L61 77.5L59 76.5L57.5 75.5L56 75L55 75.5L54 76.5L52.5 76L51 75.5L50 76V153.5L37 154L21 154.5H15L14.5 155L27 158L45 162.5L50 164V219L18 230.5L0.5 237Z" fill="#D9D9D9" stroke="black"/>
</svg>
